<svg width="20" height="20" viewBox="0 0 20 20" fill="none" xmlns="http://www.w3.org/2000/svg">
<path d="M18.7419 11.045C18.0642 11.225 17.366 11.3161 16.6649 11.316C14.5299 11.316 12.5249 10.486 11.0189 8.98001C10.0299 7.98536 9.31895 6.74887 8.9568 5.39381C8.59465 4.03874 8.59399 2.61242 8.95488 1.25701C8.99995 1.08755 8.99967 0.909206 8.95405 0.739884C8.90844 0.570562 8.8191 0.416212 8.695 0.292316C8.57091 0.16842 8.41641 0.0793356 8.24701 0.0339989C8.07762 -0.0113379 7.89928 -0.0113329 7.72988 0.0340134C6.03304 0.486197 4.48494 1.37664 3.24088 2.61601C-0.657117 6.51401 -0.657117 12.859 3.24088 16.759C4.16741 17.6907 5.26952 18.4294 6.48342 18.9323C7.69733 19.4353 8.99892 19.6924 10.3129 19.689C11.6265 19.6927 12.9278 19.4357 14.1414 18.9329C15.355 18.4302 16.4567 17.6916 17.3829 16.76C18.6232 15.5157 19.514 13.9668 19.9659 12.269C20.0108 12.0996 20.0104 11.9214 19.9648 11.7522C19.9192 11.583 19.83 11.4287 19.7061 11.3048C19.5822 11.1809 19.4279 11.0917 19.2587 11.0461C19.0895 11.0005 18.9113 11.0001 18.7419 11.045V11.045ZM15.9699 15.346C15.2289 16.0911 14.3474 16.6818 13.3766 17.084C12.4057 17.4862 11.3647 17.6918 10.3139 17.689C9.26267 17.6916 8.22138 17.4858 7.25021 17.0835C6.27904 16.6811 5.39727 16.0903 4.65588 15.345C1.53788 12.226 1.53788 7.15001 4.65588 4.03101C5.25839 3.42918 5.95398 2.92843 6.71588 2.54801C6.60436 3.98707 6.80483 5.43324 7.30361 6.7877C7.80238 8.14216 8.5877 9.37297 9.60588 10.396C10.6267 11.4174 11.8571 12.2049 13.2122 12.704C14.5672 13.2032 16.0144 13.4021 17.4539 13.287C17.0714 14.0476 16.5705 14.7426 15.9699 15.346V15.346Z" fill="#3E85F3"/>
</svg>
