<svg width="20" height="18" viewBox="0 0 20 18" fill="none" xmlns="http://www.w3.org/2000/svg">
<path fill-rule="evenodd" clip-rule="evenodd" d="M15.85 3.77777C15.85 3.2087 15.8507 2.799 15.8781 2.47883C15.9062 2.15184 15.9555 2.03188 15.9789 1.99287C15.9849 1.9828 15.9873 1.98107 15.9904 1.97876L15.9909 1.97841C15.9974 1.97365 16.0248 1.95519 16.0944 1.93372C16.2503 1.88561 16.5212 1.84999 17 1.84999C17.4788 1.84999 17.7497 1.88561 17.9056 1.93372C17.9751 1.95519 18.0026 1.97365 18.0091 1.97841L18.0095 1.97876C18.0127 1.98107 18.0151 1.9828 18.0211 1.99287C18.0445 2.03188 18.0938 2.15184 18.1219 2.47883C18.1493 2.799 18.15 3.2087 18.15 3.77777V3.79084V3.80399V3.81722V3.83054V3.84395V3.85744V3.87102V3.88468V3.89842V3.91225V3.92616V3.94015V3.95422V3.96838V3.98262V3.99694V4.01134V4.02583V4.04039V4.05503V4.06975V4.08455V4.09944V4.1144V4.12943V4.14455V4.15974V4.17501V4.19036V4.20579V4.22129V4.23686V4.25252V4.26824V4.28405V4.29992V4.31588V4.3319V4.348V4.36417V4.38042V4.39674V4.41313V4.42959V4.44613V4.46273V4.47941V4.49615V4.51297V4.52986V4.54682V4.56384V4.58094V4.5981V4.61533V4.63263V4.65V4.66743V4.68493V4.7025V4.72014V4.73783V4.7556V4.77343V4.79133V4.80929V4.82731V4.8454V4.86355V4.88176V4.90004V4.91838V4.93678V4.95525V4.97377V4.99236V5.01101V5.02971V5.04848V5.06731V5.0862V5.10514V5.12415V5.14321V5.16233V5.18151V5.20075V5.22004V5.23939V5.2588V5.27826V5.29778V5.31735V5.33698V5.35667V5.3764V5.3962V5.41604V5.43594V5.45589V5.4759V5.49596V5.51607V5.53623V5.55644V5.5767V5.59702V5.61738V5.63779V5.65826V5.67877V5.69933V5.71994V5.7406V5.76131V5.78207V5.80287V5.82372V5.84461V5.86555V5.88654V5.90758V5.92865V5.94978V5.97095V5.99216V6.01342V6.03472V6.05606V6.07744V6.09887V6.12034V6.14186V6.16341V6.18501V6.20664V6.22832V6.25004V6.27179V6.29359V6.31543V6.3373V6.35921V6.38116V6.40315V6.42518V6.44724V6.46934V6.49148V6.51365V6.53586V6.55811V6.58039V6.6027V6.62505V6.64743V6.66985V6.6923V6.71478V6.7373V6.75985V6.78243V6.80504V6.82768V6.85036V6.87306V6.8958V6.91856V6.94136V6.96418V6.98704V7.00992V7.03283V7.05577V7.07874V7.10173V7.12475V7.1478V7.17088V7.19398V7.2171V7.24025V7.26343V7.28663V7.30985V7.3331V7.35638V7.37967V7.40299V7.42633V7.4497V7.47308V7.49649V7.51992V7.54337V7.56684V7.59033V7.61384V7.63737V7.66092V7.68449V7.70808V7.73168V7.7553V7.77894V7.8026V7.82628V7.84997V7.87368V7.8974V7.92114V7.94489V7.96866V7.99244V8.01624V8.04005V8.06388V8.08772V8.11157V8.13543V8.15931V8.1832V8.20709V8.231V8.25492V8.27886V8.3028V8.32675V8.35071V8.37468V8.39866V8.42265V8.44664V8.47064V8.49465V8.51867V8.5427V8.56673V8.59076V8.61481V8.63885V8.66291V8.68697V8.71103V8.73509V8.75916V8.78324V8.80731V8.83139V8.85547V8.87956V8.90364V8.92773V8.95182V8.9759V8.99999V9.02408V9.04817V9.07226V9.09634V9.12043V9.14451V9.16859V9.19267V9.21675V9.24082V9.26489V9.28896V9.31302V9.33708V9.36113V9.38518V9.40922V9.43326V9.45729V9.48131V9.50533V9.52934V9.55334V9.57734V9.60133V9.62531V9.64927V9.67324V9.69719V9.72113V9.74506V9.76898V9.79289V9.81679V9.84068V9.86455V9.88842V9.91227V9.93611V9.95993V9.98374V10.0075V10.0313V10.0551V10.0788V10.1026V10.1263V10.15V10.1737V10.1974V10.221V10.2447V10.2683V10.2919V10.3155V10.3391V10.3626V10.3861V10.4097V10.4331V10.4566V10.4801V10.5035V10.5269V10.5503V10.5737V10.597V10.6203V10.6436V10.6669V10.6901V10.7134V10.7366V10.7597V10.7829V10.806V10.8291V10.8522V10.8752V10.8983V10.9212V10.9442V10.9672V10.9901V11.0129V11.0358V11.0586V11.0814V11.1042V11.1269V11.1496V11.1723V11.1949V11.2176V11.2401V11.2627V11.2852V11.3077V11.3301V11.3526V11.3749V11.3973V11.4196V11.4419V11.4641V11.4863V11.5085V11.5306V11.5527V11.5748V11.5968V11.6188V11.6408V11.6627V11.6846V11.7064V11.7282V11.7499V11.7717V11.7933V11.815V11.8366V11.8581V11.8796V11.9011V11.9225V11.9439V11.9653V11.9866V12.0078V12.029V12.0502V12.0713V12.0924V12.1134V12.1344V12.1554V12.1763V12.1971V12.2179V12.2387V12.2594V12.28V12.3007V12.3212V12.3417V12.3622V12.3826V12.403V12.4233V12.4435V12.4638V12.4839V12.504V12.5241V12.5441V12.564V12.5839V12.6038V12.6236V12.6433V12.663V12.6826V12.7022V12.7217V12.7412V12.7606V12.7799V12.7992V12.8185V12.8377V12.8568V12.8758V12.8948V12.9138V12.9327V12.9515V12.9703V12.989V13.0076V13.0262V13.0447V13.0632V13.0816V13.0999V13.1182V13.1364V13.1546V13.1727V13.1907V13.2087V13.2266V13.2444V13.2621V13.2799V13.2975V13.3151V13.3326V13.35V13.3674V13.3847V13.4019V13.419V13.4361V13.4532V13.4701V13.487V13.5038V13.5206V13.5373V13.5539V13.5704V13.5869V13.6032V13.6196V13.6358V13.652V13.6681V13.6841V13.7001V13.7159V13.7317V13.7475V13.7631V13.7787V13.7942V13.8096V13.825V13.8402V13.8554V13.8706V13.8856V13.9005V13.9154V13.9302V13.945V13.9596V13.9742V13.9886V14.003V14.0174V14.0316V14.0458V14.0598V14.0738V14.0877V14.1016V14.1153V14.129V14.1425V14.156V14.1694V14.1828V14.196V14.2092V14.2222C18.15 14.8944 18.1118 15.3497 18.049 15.6586C17.9858 15.9689 17.9123 16.0565 17.8998 16.0698C17.8953 16.0746 17.8912 16.0784 17.8781 16.0845C17.8612 16.0925 17.8241 16.1064 17.7515 16.1189C17.5859 16.1474 17.3687 16.15 17 16.15C16.6256 16.15 16.4056 16.1474 16.2387 16.1188C16.1657 16.1063 16.129 16.0924 16.1129 16.0848C16.1009 16.0791 16.098 16.0761 16.0945 16.0724C16.0835 16.0606 16.0109 15.9742 15.9487 15.6621C15.8869 15.352 15.85 14.8956 15.85 14.2222V3.77777ZM17 0.149994C16.0337 0.149994 15.0408 0.252135 14.5211 1.11823C14.2945 1.49588 14.2188 1.93148 14.1843 2.33366C14.15 2.73476 14.15 3.21671 14.15 3.74641V3.74642V3.77777V14.2222C14.15 14.9377 14.1876 15.523 14.2814 15.9942C14.3749 16.4633 14.539 16.8977 14.8525 17.2332C15.1817 17.5855 15.5835 17.7313 15.9516 17.7944C16.2775 17.8502 16.6414 17.8501 16.9597 17.85L17 17.85L17.0397 17.85C17.3532 17.8501 17.7146 17.8502 18.0398 17.7943C18.4069 17.7311 18.8073 17.5856 19.1369 17.2357C19.4516 16.9018 19.6189 16.4686 19.7148 15.9977C19.811 15.5253 19.85 14.939 19.85 14.2222V14.2092V14.196V14.1828V14.1694V14.156V14.1425V14.129V14.1153V14.1016V14.0877V14.0738V14.0598V14.0458V14.0316V14.0174V14.003V13.9886V13.9742V13.9596V13.945V13.9302V13.9154V13.9005V13.8856V13.8706V13.8554V13.8402V13.825V13.8096V13.7942V13.7787V13.7631V13.7475V13.7317V13.7159V13.7001V13.6841V13.6681V13.652V13.6358V13.6196V13.6032V13.5869V13.5704V13.5539V13.5373V13.5206V13.5038V13.487V13.4701V13.4532V13.4361V13.419V13.4019V13.3847V13.3674V13.35V13.3326V13.3151V13.2975V13.2799V13.2621V13.2444V13.2266V13.2087V13.1907V13.1727V13.1546V13.1364V13.1182V13.0999V13.0816V13.0632V13.0447V13.0262V13.0076V12.989V12.9703V12.9515V12.9327V12.9138V12.8948V12.8758V12.8568V12.8377V12.8185V12.7992V12.7799V12.7606V12.7412V12.7217V12.7022V12.6826V12.663V12.6433V12.6236V12.6038V12.5839V12.564V12.5441V12.5241V12.504V12.4839V12.4638V12.4435V12.4233V12.403V12.3826V12.3622V12.3417V12.3212V12.3007V12.28V12.2594V12.2387V12.2179V12.1971V12.1763V12.1554V12.1344V12.1134V12.0924V12.0713V12.0502V12.029V12.0078V11.9866V11.9653V11.9439V11.9225V11.9011V11.8796V11.8581V11.8366V11.815V11.7933V11.7717V11.7499V11.7282V11.7064V11.6846V11.6627V11.6408V11.6188V11.5968V11.5748V11.5527V11.5306V11.5085V11.4863V11.4641V11.4419V11.4196V11.3973V11.3749V11.3526V11.3301V11.3077V11.2852V11.2627V11.2401V11.2176V11.1949V11.1723V11.1496V11.1269V11.1042V11.0814V11.0586V11.0358V11.0129V10.9901V10.9672V10.9442V10.9212V10.8983V10.8752V10.8522V10.8291V10.806V10.7829V10.7597V10.7366V10.7134V10.6901V10.6669V10.6436V10.6203V10.597V10.5737V10.5503V10.5269V10.5035V10.4801V10.4566V10.4331V10.4097V10.3861V10.3626V10.3391V10.3155V10.2919V10.2683V10.2447V10.221V10.1974V10.1737V10.15V10.1263V10.1026V10.0788V10.0551V10.0313V10.0075V9.98374V9.95993V9.93611V9.91227V9.88842V9.86455V9.84068V9.81679V9.79289V9.76898V9.74506V9.72113V9.69719V9.67324V9.64927V9.62531V9.60133V9.57734V9.55334V9.52934V9.50533V9.48131V9.45729V9.43326V9.40922V9.38518V9.36113V9.33708V9.31302V9.28896V9.26489V9.24082V9.21675V9.19267V9.16859V9.14451V9.12043V9.09634V9.07226V9.04817V9.02408V8.99999V8.9759V8.95182V8.92773V8.90364V8.87956V8.85547V8.83139V8.80731V8.78324V8.75916V8.73509V8.71103V8.68697V8.66291V8.63885V8.61481V8.59076V8.56673V8.5427V8.51867V8.49465V8.47064V8.44664V8.42265V8.39866V8.37468V8.35071V8.32675V8.3028V8.27886V8.25492V8.231V8.20709V8.1832V8.15931V8.13543V8.11157V8.08772V8.06388V8.04005V8.01624V7.99244V7.96866V7.94489V7.92114V7.8974V7.87368V7.84997V7.82628V7.8026V7.77894V7.7553V7.73168V7.70808V7.68449V7.66092V7.63737V7.61384V7.59033V7.56684V7.54337V7.51992V7.49649V7.47308V7.4497V7.42633V7.40299V7.37967V7.35638V7.3331V7.30985V7.28663V7.26343V7.24025V7.2171V7.19398V7.17088V7.1478V7.12475V7.10173V7.07874V7.05577V7.03283V7.00992V6.98704V6.96418V6.94136V6.91856V6.8958V6.87306V6.85036V6.82768V6.80504V6.78243V6.75985V6.7373V6.71478V6.6923V6.66985V6.64743V6.62505V6.6027V6.58039V6.55811V6.53586V6.51365V6.49148V6.46934V6.44724V6.42518V6.40315V6.38116V6.35921V6.3373V6.31543V6.29359V6.27179V6.25004V6.22832V6.20664V6.18501V6.16341V6.14186V6.12034V6.09887V6.07744V6.05606V6.03472V6.01342V5.99216V5.97095V5.94978V5.92865V5.90758V5.88654V5.86555V5.84461V5.82372V5.80287V5.78207V5.76131V5.7406V5.71994V5.69933V5.67877V5.65826V5.63779V5.61738V5.59702V5.5767V5.55644V5.53623V5.51607V5.49596V5.4759V5.45589V5.43594V5.41604V5.3962V5.3764V5.35667V5.33698V5.31735V5.29778V5.27826V5.2588V5.23939V5.22004V5.20075V5.18151V5.16233V5.14321V5.12415V5.10514V5.0862V5.06731V5.04848V5.02971V5.01101V4.99236V4.97377V4.95525V4.93678V4.91838V4.90004V4.88176V4.86355V4.8454V4.82731V4.80929V4.79133V4.77343V4.7556V4.73783V4.72014V4.7025V4.68493V4.66743V4.65V4.63263V4.61533V4.5981V4.58094V4.56384V4.54682V4.52986V4.51297V4.49615V4.47941V4.46273V4.44613V4.42959V4.41313V4.39674V4.38042V4.36417V4.348V4.3319V4.31588V4.29992V4.28405V4.26824V4.25252V4.23686V4.22129V4.20579V4.19036V4.17501V4.15974V4.14455V4.12943V4.1144V4.09944V4.08455V4.06975V4.05503V4.04039V4.02583V4.01134V3.99694V3.98262V3.96838V3.95422V3.94015V3.92616V3.91225V3.89842V3.88468V3.87102V3.85744V3.84395V3.83054V3.81722V3.80399V3.79084V3.77777L19.85 3.7464C19.85 3.21671 19.85 2.73475 19.8156 2.33366C19.7812 1.93148 19.7055 1.49588 19.4789 1.11823C18.9592 0.252135 17.9663 0.149994 17 0.149994ZM8.87899 6.49996C8.85398 6.72539 8.85297 6.98789 8.85297 7.33333L8.85298 11L8.85298 14.6667C8.85298 14.6748 8.85287 14.683 8.85263 14.6912C8.82785 15.5507 8.9843 15.8412 9.07728 15.9408C9.15763 16.0269 9.35958 16.15 9.99972 16.15C10.6255 16.15 10.8337 16.0284 10.9193 15.9376C11.0144 15.8368 11.1742 15.5457 11.1469 14.6939C11.1466 14.6848 11.1465 14.6757 11.1465 14.6667V11L11.1465 7.33333C11.1465 6.98789 11.1455 6.72539 11.1204 6.49996C11.0958 6.27778 11.054 6.1641 11.0177 6.10346L11.0165 6.1014C10.993 6.06167 10.8682 5.84999 9.99972 5.84999C9.13122 5.84999 9.00639 6.06167 8.98296 6.1014L8.98174 6.10346C8.94542 6.1641 8.90363 6.27778 8.87899 6.49996ZM7.52338 5.22987C8.00235 4.43027 8.8878 4.14999 9.99972 4.14999C11.1116 4.14999 11.9971 4.43027 12.4761 5.22987C12.6893 5.58589 12.7723 5.97221 12.8101 6.31253C12.8465 6.64098 12.8465 6.99359 12.8465 7.30862L12.8465 7.33333L12.8465 11V14.6534C12.8761 15.6293 12.7262 16.4995 12.156 17.104C11.5735 17.7216 10.7539 17.85 9.99972 17.85C9.23816 17.85 8.41532 17.7231 7.83452 17.1008C7.26878 16.4947 7.12649 15.6235 7.15298 14.6547L7.15298 11L7.15297 7.33333L7.15297 7.30861C7.15295 6.99358 7.15292 6.64098 7.18935 6.31253C7.2271 5.97221 7.31011 5.58589 7.52338 5.22987ZM1.87708 11.5196C1.85086 11.7834 1.85 12.1018 1.85 12.5278V15.2943C1.85 15.7748 1.96617 15.9063 2.02249 15.9539C2.11409 16.0314 2.36204 16.15 3 16.15C3.6237 16.15 3.87544 16.0327 3.97204 15.9517C4.03285 15.9007 4.15 15.7665 4.15 15.2943V15.2872V15.2801V15.273V15.2659V15.2589V15.2518V15.2448V15.2378V15.2308V15.2238V15.2168V15.2099V15.2029V15.196V15.1891V15.1822V15.1753V15.1684V15.1616V15.1547V15.1479V15.1411V15.1343V15.1275V15.1207V15.1139V15.1072V15.1004V15.0937V15.087V15.0803V15.0736V15.0669V15.0603V15.0536V15.047V15.0404V15.0338V15.0272V15.0206V15.014V15.0075V15.0009V14.9944V14.9879V14.9814V14.9749V14.9684V14.9619V14.9555V14.949V14.9426V14.9362V14.9298V14.9234V14.917V14.9106V14.9043V14.8979V14.8916V14.8853V14.879V14.8727V14.8664V14.8601V14.8538V14.8476V14.8413V14.8351V14.8289V14.8227V14.8165V14.8103V14.8041V14.7979V14.7918V14.7857V14.7795V14.7734V14.7673V14.7612V14.7551V14.749V14.743V14.7369V14.7309V14.7248V14.7188V14.7128V14.7068V14.7008V14.6948V14.6889V14.6829V14.6769V14.671V14.6651V14.6592V14.6532V14.6473V14.6415V14.6356V14.6297V14.6238V14.618V14.6122V14.6063V14.6005V14.5947V14.5889V14.5831V14.5773V14.5715V14.5658V14.56V14.5543V14.5485V14.5428V14.5371V14.5314V14.5257V14.52V14.5143V14.5086V14.503V14.4973V14.4917V14.486V14.4804V14.4748V14.4692V14.4636V14.458V14.4524V14.4468V14.4412V14.4357V14.4301V14.4246V14.419V14.4135V14.408V14.4025V14.397V14.3915V14.386V14.3805V14.375V14.3696V14.3641V14.3587V14.3532V14.3478V14.3424V14.3369V14.3315V14.3261V14.3207V14.3153V14.3099V14.3046V14.2992V14.2938V14.2885V14.2831V14.2778V14.2725V14.2671V14.2618V14.2565V14.2512V14.2459V14.2406V14.2353V14.23V14.2248V14.2195V14.2142V14.209V14.2037V14.1985V14.1933V14.188V14.1828V14.1776V14.1724V14.1672V14.162V14.1568V14.1516V14.1464V14.1412V14.1361V14.1309V14.1257V14.1206V14.1154V14.1103V14.1052V14.1V14.0949V14.0898V14.0847V14.0796V14.0744V14.0693V14.0643V14.0592V14.0541V14.049V14.0439V14.0389V14.0338V14.0287V14.0237V14.0186V14.0136V14.0085V14.0035V13.9985V13.9934V13.9884V13.9834V13.9784V13.9734V13.9684V13.9634V13.9584V13.9534V13.9484V13.9434V13.9384V13.9334V13.9284V13.9235V13.9185V13.9135V13.9086V13.9036V13.8987V13.8937V13.8888V13.8838V13.8789V13.874V13.869V13.8641V13.8592V13.8543V13.8493V13.8444V13.8395V13.8346V13.8297V13.8248V13.8199V13.815V13.8101V13.8052V13.8003V13.7954V13.7905V13.7856V13.7808V13.7759V13.771V13.7661V13.7613V13.7564V13.7515V13.7467V13.7418V13.7369V13.7321V13.7272V13.7224V13.7175V13.7127V13.7078V13.703V13.6981V13.6933V13.6884V13.6836V13.6787V13.6739V13.6691V13.6642V13.6594V13.6546V13.6497V13.6449V13.6401V13.6352V13.6304V13.6256V13.6208V13.6159V13.6111V13.6063V13.6015V13.5966V13.5918V13.587V13.5822V13.5774V13.5725V13.5677V13.5629V13.5581V13.5533V13.5485V13.5436V13.5388V13.534V13.5292V13.5244V13.5196V13.5147V13.5099V13.5051V13.5003V13.4955V13.4907V13.4858V13.481V13.4762V13.4714V13.4666V13.4617V13.4569V13.4521V13.4473V13.4425V13.4376V13.4328V13.428V13.4231V13.4183V13.4135V13.4087V13.4038V13.399V13.3942V13.3893V13.3845V13.3797V13.3748V13.37V13.3651V13.3603V13.3554V13.3506V13.3458V13.3409V13.3361V13.3312V13.3263V13.3215V13.3166V13.3118V13.3069V13.302V13.2972V13.2923V13.2874V13.2826V13.2777V13.2728V13.2679V13.263V13.2581V13.2533V13.2484V13.2435V13.2386V13.2337V13.2288V13.2239V13.219V13.214V13.2091V13.2042V13.1993V13.1944V13.1894V13.1845V13.1796V13.1746V13.1697V13.1648V13.1598V13.1549V13.1499V13.145V13.14V13.135V13.1301V13.1251V13.1201V13.1151V13.1102V13.1052V13.1002V13.0952V13.0902V13.0852V13.0802V13.0752V13.0701V13.0651V13.0601V13.0551V13.05V13.045V13.04V13.0349V13.0299V13.0248V13.0197V13.0147V13.0096V13.0045V12.9995V12.9944V12.9893V12.9842V12.9791V12.974V12.9689V12.9637V12.9586V12.9535V12.9484V12.9432V12.9381V12.9329V12.9278V12.9226V12.9175V12.9123V12.9071V12.9019V12.8967V12.8916V12.8864V12.8811V12.8759V12.8707V12.8655V12.8603V12.855V12.8498V12.8445V12.8393V12.834V12.8287V12.8235V12.8182V12.8129V12.8076V12.8023V12.797V12.7917V12.7864V12.781V12.7757V12.7704V12.765V12.7597V12.7543V12.7489V12.7436V12.7382V12.7328V12.7274V12.722V12.7166V12.7111V12.7057V12.7003V12.6948V12.6894V12.6839V12.6785V12.673V12.6675V12.662V12.6565V12.651V12.6455V12.64V12.6344V12.6289V12.6234V12.6178V12.6122V12.6067V12.6011V12.5955V12.5899V12.5843V12.5787V12.5731V12.5674V12.5618V12.5561V12.5505V12.5448V12.5429L4.14308 12.3406V12.3406C4.13202 12.0114 4.12338 11.754 4.09882 11.5269C4.06933 11.2543 4.02492 11.1272 3.98958 11.0653L3.98891 11.0638C3.9799 11.0437 3.89333 10.85 3 10.85C2.10275 10.85 1.99827 11.0458 1.98389 11.0728L1.98279 11.0748C1.94831 11.1335 1.90325 11.2563 1.87708 11.5196ZM0.517192 10.2134C1.00745 9.37926 1.92519 9.14999 3 9.14999C4.07676 9.14999 4.98575 9.38062 5.46623 10.2229C5.67352 10.5863 5.75042 10.9879 5.78896 11.3441C5.82098 11.6402 5.83204 11.9752 5.84292 12.3046C5.84505 12.3692 5.84718 12.4336 5.84946 12.4975L5.84975 12.5072L5.85 12.5278V12.5335V12.5391V12.5448V12.5505V12.5561V12.5618V12.5674V12.5731V12.5787V12.5843V12.5899V12.5955V12.6011V12.6067V12.6122V12.6178V12.6234V12.6289V12.6344V12.64V12.6455V12.651V12.6565V12.662V12.6675V12.673V12.6785V12.6839V12.6894V12.6948V12.7003V12.7057V12.7111V12.7166V12.722V12.7274V12.7328V12.7382V12.7436V12.7489V12.7543V12.7597V12.765V12.7704V12.7757V12.781V12.7864V12.7917V12.797V12.8023V12.8076V12.8129V12.8182V12.8235V12.8287V12.834V12.8393V12.8445V12.8498V12.855V12.8603V12.8655V12.8707V12.8759V12.8811V12.8864V12.8916V12.8967V12.9019V12.9071V12.9123V12.9175V12.9226V12.9278V12.9329V12.9381V12.9432V12.9484V12.9535V12.9586V12.9637V12.9689V12.974V12.9791V12.9842V12.9893V12.9944V12.9995V13.0045V13.0096V13.0147V13.0197V13.0248V13.0299V13.0349V13.04V13.045V13.05V13.0551V13.0601V13.0651V13.0701V13.0752V13.0802V13.0852V13.0902V13.0952V13.1002V13.1052V13.1102V13.1151V13.1201V13.1251V13.1301V13.135V13.14V13.145V13.1499V13.1549V13.1598V13.1648V13.1697V13.1746V13.1796V13.1845V13.1894V13.1944V13.1993V13.2042V13.2091V13.214V13.219V13.2239V13.2288V13.2337V13.2386V13.2435V13.2484V13.2533V13.2581V13.263V13.2679V13.2728V13.2777V13.2826V13.2874V13.2923V13.2972V13.302V13.3069V13.3118V13.3166V13.3215V13.3263V13.3312V13.3361V13.3409V13.3458V13.3506V13.3554V13.3603V13.3651V13.37V13.3748V13.3797V13.3845V13.3893V13.3942V13.399V13.4038V13.4087V13.4135V13.4183V13.4231V13.428V13.4328V13.4376V13.4425V13.4473V13.4521V13.4569V13.4617V13.4666V13.4714V13.4762V13.481V13.4858V13.4907V13.4955V13.5003V13.5051V13.5099V13.5147V13.5196V13.5244V13.5292V13.534V13.5388V13.5436V13.5485V13.5533V13.5581V13.5629V13.5677V13.5725V13.5774V13.5822V13.587V13.5918V13.5966V13.6015V13.6063V13.6111V13.6159V13.6208V13.6256V13.6304V13.6352V13.6401V13.6449V13.6497V13.6546V13.6594V13.6642V13.6691V13.6739V13.6787V13.6836V13.6884V13.6933V13.6981V13.703V13.7078V13.7127V13.7175V13.7224V13.7272V13.7321V13.7369V13.7418V13.7467V13.7515V13.7564V13.7613V13.7661V13.771V13.7759V13.7808V13.7856V13.7905V13.7954V13.8003V13.8052V13.8101V13.815V13.8199V13.8248V13.8297V13.8346V13.8395V13.8444V13.8493V13.8543V13.8592V13.8641V13.869V13.874V13.8789V13.8838V13.8888V13.8937V13.8987V13.9036V13.9086V13.9135V13.9185V13.9235V13.9284V13.9334V13.9384V13.9434V13.9484V13.9534V13.9584V13.9634V13.9684V13.9734V13.9784V13.9834V13.9884V13.9934V13.9985V14.0035V14.0085V14.0136V14.0186V14.0237V14.0287V14.0338V14.0389V14.0439V14.049V14.0541V14.0592V14.0643V14.0693V14.0744V14.0796V14.0847V14.0898V14.0949V14.1V14.1052V14.1103V14.1154V14.1206V14.1257V14.1309V14.1361V14.1412V14.1464V14.1516V14.1568V14.162V14.1672V14.1724V14.1776V14.1828V14.188V14.1933V14.1985V14.2037V14.209V14.2142V14.2195V14.2248V14.23V14.2353V14.2406V14.2459V14.2512V14.2565V14.2618V14.2671V14.2725V14.2778V14.2831V14.2885V14.2938V14.2992V14.3046V14.3099V14.3153V14.3207V14.3261V14.3315V14.3369V14.3424V14.3478V14.3532V14.3587V14.3641V14.3696V14.375V14.3805V14.386V14.3915V14.397V14.4025V14.408V14.4135V14.419V14.4246V14.4301V14.4357V14.4412V14.4468V14.4524V14.458V14.4636V14.4692V14.4748V14.4804V14.486V14.4917V14.4973V14.503V14.5086V14.5143V14.52V14.5257V14.5314V14.5371V14.5428V14.5485V14.5543V14.56V14.5658V14.5715V14.5773V14.5831V14.5889V14.5947V14.6005V14.6063V14.6122V14.618V14.6238V14.6297V14.6356V14.6415V14.6473V14.6532V14.6592V14.6651V14.671V14.6769V14.6829V14.6889V14.6948V14.7008V14.7068V14.7128V14.7188V14.7248V14.7309V14.7369V14.743V14.749V14.7551V14.7612V14.7673V14.7734V14.7795V14.7857V14.7918V14.7979V14.8041V14.8103V14.8165V14.8227V14.8289V14.8351V14.8413V14.8476V14.8538V14.8601V14.8664V14.8727V14.879V14.8853V14.8916V14.8979V14.9043V14.9106V14.917V14.9234V14.9298V14.9362V14.9426V14.949V14.9555V14.9619V14.9684V14.9749V14.9814V14.9879V14.9944V15.0009V15.0075V15.014V15.0206V15.0272V15.0338V15.0404V15.047V15.0536V15.0603V15.0669V15.0736V15.0803V15.087V15.0937V15.1004V15.1072V15.1139V15.1207V15.1275V15.1343V15.1411V15.1479V15.1547V15.1616V15.1684V15.1753V15.1822V15.1891V15.196V15.2029V15.2099V15.2168V15.2238V15.2308V15.2378V15.2448V15.2518V15.2589V15.2659V15.273V15.2801V15.2872V15.2943C5.85 16.0374 5.65829 16.756 5.06467 17.2541C4.50683 17.722 3.75858 17.85 3 17.85C2.23398 17.85 1.48192 17.7233 0.924527 17.2518C0.331834 16.7504 0.149995 16.029 0.149995 15.2943V12.5278V12.5003V12.5003C0.149976 12.1086 0.149957 11.7083 0.185411 11.3515C0.221741 10.9859 0.301671 10.5801 0.517192 10.2134Z" fill="#343434" fill-opacity="0.5"/>
</svg>
