<svg width="28" height="28" viewBox="0 0 28 28" fill="none" xmlns="http://www.w3.org/2000/svg">
<path d="M7.32401 14.0001C7.32401 17.6814 10.3187 20.6761 14 20.6761C17.6813 20.6761 20.676 17.6814 20.676 14.0001C20.676 10.3188 17.6813 7.32409 14 7.32409C10.3187 7.32409 7.32401 10.3188 7.32401 14.0001ZM14 9.99075C16.2107 9.99075 18.0093 11.7894 18.0093 14.0001C18.0093 16.2108 16.2107 18.0094 14 18.0094C11.7893 18.0094 9.99067 16.2108 9.99067 14.0001C9.99067 11.7894 11.7893 9.99075 14 9.99075ZM12.664 23.3334H15.3307V27.3334H12.664V23.3334ZM12.664 0.666748H15.3307V4.66675H12.664V0.666748ZM0.664001 12.6668H4.664V15.3334H0.664001V12.6668ZM23.3307 12.6668H27.3307V15.3334H23.3307V12.6668ZM3.62534 22.4841L6.45201 19.6548L8.33867 21.5401L5.512 24.3694L3.62534 22.4841ZM19.6533 6.45875L22.4827 3.62942L24.368 5.51475L21.5387 8.34409L19.6533 6.45875ZM6.45601 8.34542L3.62667 5.51608L5.51334 3.63075L8.34001 6.46008L6.45601 8.34542ZM24.368 22.4854L22.4827 24.3708L19.6533 21.5414L21.5387 19.6561L24.368 22.4854Z" fill="#3E85F3"/>
</svg>
